<svg id="Layer_1" data-name="Layer 1" xmlns="http://www.w3.org/2000/svg" viewBox="0 0 532 604"><defs><style>.cls-1{fill:#fff;}</style></defs><title>guther</title><path d="M388,95h2l41,21c7,4,14,6,22,3l13-3h8v2l-28,7,27,14v2l-26-11,11,26c-8-7-9-17-16-26l-3,24h-2c0-3,0-7,0-10s0-7,0-11h-1l-9,20h-2c-2-7,5-11,5-18l-12,8v-2l18-14-2-2-43-22h-3c-3,0-12,10-12,14s11,5,12,12,3,19,5,28,5,24,16,31l6,5a37,37,0,0,1,14,20,171,171,0,0,0,6,17l4,8,2-3c10-23,27-41,46-58,1-1,4-3,6-2l37,11c7,2,7,4,2,9l-2,2-49,42-29,24c-5,4-5,8-2,13l5,9c1,2,2,4,1,5h-5l-14-2c2,7,3,13,5,20s5,18,3,25-1,13,6,17h1l32,28,38,30c3,3,5,6,2,10s-3,8-1,13,9-11,13-15l20-13h5c1,1,0,4,0,5l-3,4-12,16-2,4h1l8-3,14-3c2,0,5,2,6,3s-1,4-2,5l-8,6-20,11,13,5c8,1,14,5,19,11v4c-3,4-8,5-13,5l-29-3c-3,0-4,1-4,4v12c1,10,1,21,2,31s-1,3-2,5l-5-4v-2l-12-30-2-4-3,6-9,20-4,3c-1-2-2-3-2-5s2-13,4-20l5-17c0-1,0-3-1-4s-14-1-16,2-4,3-7,1l-15-8v5c-1,6-1,12-3,18s-7,26-7,40a328,328,0,0,1-7,57c-1,2-1,5-3,7s-6,14-11,20l32,4,15,2c6,2,7,6,2,10l-5,4-6,4,31,2c17,2,33,6,47,14,2,1,3,4,4,6s-4,11-11,13l-34,8-30,2H444l-37-2c-25-1-50-6-74-14-11-4-11-17-5-23a58,58,0,0,1,24-14c14-4,12-2,10-16s-3-20-10-29-4-12-7-17-4-5-6-5l-23-2-4,2c-3,5-5,9-7,14s-2,7-9,8-6,1-8,5l-7,20c-1,4,0,7,3,10l8,6c3,3,7,7,4,12a27,27,0,0,1-16,14c-17,5-35,4-52,4l-85-2c-10-1-19-4-29-6s-8-7-3-12,4-5,7-6,20-9,30-12,19-4,28-6l8-2-4-6c-3-5-2-8,4-9h14c3,0,4-1,3-4l-2-7c-1-3-3-5-3-8s-1-22-2-33c-3-22,2-43,2-64,0-8-1-15-2-24l-6,3-17,9a8,8,0,0,1-9-1c-4-3-8-4-13-1l8,14c3,5,6,10,8,16a9,9,0,0,1-1,8c-1,1-5,1-7,0l-18-11c-3-2-5-2-6,1s-4,10-7,15a66,66,0,0,1-10,13c-4,4-8,2-8-4a95,95,0,0,1,0-15c1-5,2-10,3-17l-6,3L75,508H68c0-3,0-6,1-8l13-19,9-11-6,2-19,9-17,7c-2,0-4-1-6-2s1-4,2-5a67,67,0,0,1,23-18l9-5v-2H70l-15-3c-2-1-3-3-3-5s3-3,5-4l40-10c2,0,5-1,5-2l10-18c2-3,2-7,4-9l14-15,64-61c4-3,6-7,7-12s8-27,14-41l3-7-19,9h-7c1-2,0-5,2-7l8-10,8-9v-2H182c-14,1-27,0-40-4s-6-3-3-8l16-25,9-12c3-4,6-4,10-2l44,21c4,2,7,1,9-2l9-13a24,24,0,0,1,10-9c22-11,43-22,66-30,4-1,6-4,7-8l12-40c1-4,3-6,7-6h24c4,0,7-1,9-5S380,97,388,95Z" transform="translate(-41 -95)"/></svg>
